<svg width="32" height="33" viewBox="0 0 32 33" fill="none" xmlns="http://www.w3.org/2000/svg">
<g id="Ic_chechlist">
<path id="Shape" fill-rule="evenodd" clip-rule="evenodd" d="M3.55469 16.5001C3.55469 9.62723 9.12626 4.05566 15.9991 4.05566C19.2996 4.05566 22.4649 5.36677 24.7987 7.70056C27.1325 10.0343 28.4436 13.1996 28.4436 16.5001C28.4436 23.373 22.872 28.9446 15.9991 28.9446C9.12626 28.9446 3.55469 23.373 3.55469 16.5001ZM15.6379 21.117L21.8602 14.8948C22.3481 14.4068 22.3481 13.6157 21.8602 13.1277C21.3722 12.6397 20.581 12.6397 20.093 13.1277L14.7544 18.4788L11.9046 15.6166C11.5889 15.3009 11.1289 15.1776 10.6976 15.2932C10.2664 15.4087 9.92963 15.7455 9.81409 16.1767C9.69855 16.6079 9.82183 17.068 10.1375 17.3837L13.8708 21.117C14.1045 21.3526 14.4226 21.4851 14.7544 21.4851C15.0862 21.4851 15.4043 21.3526 15.6379 21.117Z" fill="#71A09E"/>
</g>
</svg>
